<svg width="1052" height="200" viewBox="0 0 1052 200" fill="none" xmlns="http://www.w3.org/2000/svg">
<circle cx="100" cy="100" r="84.2069" stroke="#162843" stroke-width="4"/>
<circle cx="100" cy="100" r="91.6034" stroke="#162843" stroke-width="3"/>
<circle cx="100" cy="100" r="98.5" stroke="#162843" stroke-width="3"/>
<path d="M101.483 52.4724C105.053 52.7093 108.588 53.3216 112.031 54.2971C113.861 50.8255 115.398 47.207 116.625 43.4793C118.277 38.4092 125.864 39.0692 126.615 44.3507C127.029 47.1055 127.199 49.8903 127.121 52.675C147.577 48.4265 162.82 44.8468 162.263 52.5942L162.192 52.8776C157.607 65.4592 148.47 75.5374 137.142 80.5056C134.626 81.6405 133.663 83.1818 133.693 85.9898C133.836 96.9902 133.693 107.697 133.693 118.576C122.985 113.921 111.434 111.519 99.7586 111.519C88.0828 111.519 76.5319 113.921 65.8246 118.576C65.8246 107.697 65.7337 96.9902 65.8246 85.9898C65.8246 83.1818 64.892 81.6405 62.3767 80.5056C51.0483 75.5374 41.9108 65.4592 37.3365 52.8776L37.2557 52.5942C36.7085 44.8479 51.951 48.4265 72.3969 52.675C72.3194 49.8903 72.4889 47.1055 72.9042 44.3507C73.6541 39.0692 81.2399 38.3794 82.9035 43.4793C84.1219 47.2102 85.6589 50.8295 87.4977 54.2971C90.9398 53.3207 94.4751 52.7091 98.0452 52.4724H101.483V52.4724Z" fill="#162843"/>
<path d="M100.124 56.2226C104.777 56.4341 109.377 57.3055 113.785 58.808C116.484 54.379 118.646 49.6456 120.224 44.7061C120.309 44.4105 120.497 44.1548 120.754 43.9854C121.01 43.816 121.319 43.7441 121.624 43.7827C121.932 43.8 122.224 43.9254 122.449 44.1369C122.674 44.3484 122.816 44.6323 122.852 44.9387C123.423 49.0244 123.481 53.1666 123.024 57.2678C125.469 56.9024 126.067 56.8117 129.292 56.0908C149.819 51.5799 156.553 51.3873 158.388 52.1778C154.099 63.5127 145.813 72.5467 135.59 77.0277C133.799 77.7205 132.278 78.9706 131.252 80.5935C130.225 82.2163 129.748 84.126 129.89 86.0407C130.012 95.1655 129.951 104.098 129.89 113.08C110.454 105.847 89.0641 105.847 69.628 113.08C69.628 104.098 69.5671 95.1555 69.628 86.0407C69.772 84.1257 69.2955 82.2152 68.269 80.592C67.2425 78.9688 65.7206 77.719 63.9284 77.0277C53.7054 72.5467 45.4296 63.5127 41.1399 52.1778C42.9763 51.3873 49.6993 51.5799 70.2261 56.0908C73.4414 56.8105 74.0605 56.9024 76.495 57.2678C76.0477 53.1666 76.1054 49.0259 76.6667 44.9387C76.7101 44.6353 76.8549 44.3556 77.0774 44.1449C77.2999 43.9342 77.5872 43.8048 77.8925 43.7779C78.1978 43.751 78.5033 43.828 78.7593 43.9965C79.0153 44.165 79.2068 44.4151 79.3027 44.7061C80.8791 49.6452 83.0378 54.3791 85.7333 58.808C90.1454 57.3056 94.748 56.4356 99.4042 56.2237H100.124V56.2226Z" fill="white"/>
<path d="M82.7827 91.2115C81.0609 91.2013 79.4132 90.5095 78.2003 89.2877C76.9875 88.0658 76.3082 86.4134 76.3111 84.6921C76.3309 83.8717 76.5142 83.0636 76.8505 82.315C77.1867 81.5665 77.6691 80.8926 78.2693 80.3328C79.481 79.1744 81.0951 78.5313 82.7716 78.5391C85.3434 78.7118 87.8632 79.3396 90.2157 80.3937C92.8429 81.5397 95.0337 83.1209 95.0226 84.8748C95.0126 86.6286 92.8218 88.2009 90.1858 89.3369C87.8455 90.3875 85.3399 91.0218 82.7816 91.2115H82.7827Z" fill="#FFD700"/>
<path d="M82.7207 92.9455C80.5489 92.9082 78.4794 92.0167 76.9607 90.4643C75.442 88.9119 74.5966 86.8236 74.6077 84.6522C74.6329 83.6053 74.8665 82.574 75.2947 81.6183C75.723 80.6627 76.3373 79.8018 77.1019 79.0861C78.6294 77.6209 80.6647 76.8035 82.7816 76.8052C85.5849 76.9945 88.3317 77.681 90.8946 78.8314C94.7291 80.5056 96.7571 82.6038 96.7471 84.9157C96.736 87.2266 94.7191 89.2849 90.8658 90.9989C88.3008 92.1448 85.5543 92.831 82.7517 93.0263H82.6697L82.7207 92.9455V92.9455ZM82.7207 80.262C81.4913 80.262 80.3106 80.7381 79.4245 81.5907C78.9927 81.9952 78.645 82.4811 78.4016 83.0204C78.1581 83.5596 78.0236 84.1417 78.0057 84.733C78.016 85.9857 78.5163 87.1845 79.3995 88.0731C80.2828 88.9617 81.4788 89.4694 82.7318 89.4875C85.0577 89.2949 87.3349 88.708 89.4659 87.7547C92.2536 86.5478 93.2682 85.362 93.2682 84.8648C93.2682 84.3677 92.2536 83.1929 89.4858 81.986C87.3529 81.0291 85.0712 80.4459 82.7406 80.262H82.7207ZM52.0629 58.0783L67.9146 61.7489C68.0826 61.7869 68.2342 61.8774 68.3474 62.0073C68.4607 62.1372 68.5296 62.2997 68.5443 62.4713C68.5589 62.643 68.5186 62.8148 68.4291 62.962C68.3396 63.1092 68.2055 63.2242 68.0464 63.2901C64.892 64.5878 59.1824 66.4635 56.4544 64.435C52.5502 61.5152 51.323 59.8931 51.0793 59.0118C51.05 58.8786 51.0556 58.74 51.0956 58.6096C51.1356 58.4793 51.2086 58.3614 51.3075 58.2675C51.4065 58.1736 51.528 58.1068 51.6603 58.0737C51.7927 58.0406 51.9313 58.0422 52.0629 58.0783V58.0783Z" fill="#162843"/>
<path d="M116.837 91.2115C118.559 91.1981 120.206 90.5056 121.419 89.2847C122.633 88.0638 123.315 86.4133 123.318 84.6921C123.269 83.0371 122.565 81.4691 121.361 80.3329C120.145 79.1735 118.527 78.5305 116.847 78.5391C114.279 78.7117 111.762 79.3397 109.414 80.3938C106.787 81.5397 104.587 83.1209 104.596 84.8748C104.608 86.6286 106.807 88.2009 109.434 89.337C111.774 90.3873 114.28 91.0217 116.837 91.2115V91.2115Z" fill="#FFD700"/>
<path d="M116.898 92.9455C119.066 92.9225 121.136 92.0441 122.659 90.5018C123.427 89.7357 124.034 88.8232 124.444 87.8185C124.853 86.8137 125.057 85.737 125.042 84.6522C125.019 83.6049 124.786 82.5728 124.358 81.6169C123.929 80.6609 123.314 79.8004 122.547 79.0861C121.02 77.6212 118.985 76.8038 116.868 76.8052C114.065 76.9934 111.317 77.6799 108.754 78.8314C104.911 80.5056 102.893 82.6038 102.893 84.9157C102.893 87.2266 104.921 89.2849 108.774 90.9989C111.34 92.1438 114.086 92.83 116.888 93.0263H116.959L116.898 92.9455V92.9455ZM116.898 80.262C118.128 80.2594 119.311 80.736 120.195 81.5907C120.628 81.9937 120.977 82.4793 121.221 83.0188C121.465 83.5584 121.599 84.1412 121.614 84.733C121.617 85.3536 121.496 85.9684 121.257 86.5412C121.018 87.114 120.667 87.6331 120.224 88.0681C119.345 88.9647 118.145 89.4752 116.888 89.4876C114.562 89.2942 112.285 88.7083 110.154 87.7547C107.375 86.5478 106.361 85.362 106.351 84.8648C106.341 84.3677 107.365 83.1929 110.134 81.986C112.27 81.0277 114.555 80.4445 116.888 80.262H116.9H116.898ZM147.567 58.0783L131.716 61.7489C131.547 61.7867 131.396 61.8771 131.282 62.0069C131.169 62.1367 131.1 62.2992 131.085 62.4709C131.07 62.6426 131.111 62.8145 131.2 62.9618C131.29 63.109 131.424 63.2241 131.583 63.2901C134.738 64.5878 140.438 66.4635 143.166 64.435C147.08 61.5152 148.297 59.8931 148.551 59.0118C148.578 58.8789 148.571 58.7414 148.53 58.6121C148.489 58.4828 148.416 58.366 148.318 58.2726C148.219 58.1793 148.099 58.1125 147.968 58.0785C147.836 58.0445 147.699 58.0445 147.567 58.0783V58.0783Z" fill="#162843"/>
<path d="M137.182 121.1C130.681 114.064 122.163 110.892 113.075 109.096C108.826 108.143 104.478 107.696 100.124 107.767H99.5061C95.1517 107.696 90.8043 108.142 86.5551 109.096C77.4276 110.891 68.938 114.065 62.4365 121.1C57.1733 126.798 55.6924 133.916 59.0185 139.867C61.1697 144.004 64.3742 147.501 68.3089 150.005C75.7629 154.476 83.805 156.646 92.4353 157.7C94.7909 157.983 97.1626 158.108 99.5349 158.076H100.154C102.526 158.108 104.898 157.983 107.254 157.7C115.893 156.686 123.926 154.476 131.38 150.005C135.314 147.501 138.518 144.004 140.669 139.867C143.936 133.916 142.414 126.798 137.18 121.099L137.182 121.1Z" fill="#CBE5EF"/>
<path d="M133.582 120.228C127.74 114.905 120.093 112.513 111.929 111.104C108.032 110.366 104.071 110.026 100.105 110.09H99.5271C95.5577 110.025 91.5921 110.365 87.6915 111.103C79.5785 112.472 71.8808 114.864 66.0383 120.228C61.3134 124.547 59.9544 129.931 62.9969 134.423C65.0459 137.689 67.9265 140.351 71.3436 142.138C78.0268 145.524 85.2471 147.207 92.9957 147.958C95.2397 148.183 97.4947 148.278 99.7497 148.241H99.9225C102.174 148.277 104.427 148.183 106.668 147.958C114.415 147.166 121.636 145.524 128.33 142.138C131.742 140.345 134.621 137.684 136.675 134.423C139.637 129.931 138.359 124.547 133.583 120.228H133.582Z" fill="white"/>
<path d="M83.2988 135.294C79.6073 137.099 76.1993 135.294 75.5103 131.238C74.8015 126.859 80.6927 116.457 82.0417 124.325C83.3908 132.192 89.4348 121.191 89.4758 126.118C89.3736 128.064 88.745 129.945 87.6572 131.561C86.5693 133.177 85.0629 134.467 83.2988 135.294V135.294Z" fill="#162843"/>
<path d="M138.713 119.691C130.965 111.306 120.6 108.468 113.472 107.057H113.319C109.592 106.224 105.789 105.782 101.97 105.74H97.6498C93.8314 105.782 90.028 106.224 86.3015 107.057H86.1487C79.0491 108.468 68.6644 111.306 60.9169 119.691C54.9326 126.159 53.5127 134.28 57.2043 140.88C59.523 145.357 62.9874 149.139 67.2445 151.841C74.2831 156.068 82.2134 158.603 92.1827 159.82C94.4079 160.087 96.6463 160.218 98.8869 160.215H100.732C102.973 160.218 105.212 160.086 107.436 159.82C117.416 158.603 125.336 156.068 132.375 151.841C136.635 149.143 140.101 145.36 142.415 140.88C146.116 134.281 144.686 126.159 138.713 119.691V119.691ZM138.794 138.853C136.828 142.691 133.878 145.938 130.245 148.261C123.723 152.185 116.32 154.537 106.919 155.683C104.657 155.949 102.381 156.067 100.104 156.037H99.485C97.2081 156.067 94.9316 155.949 92.6701 155.683C83.2889 154.537 75.8858 152.185 69.3444 148.261C65.7094 145.935 62.7584 142.685 60.7939 138.843C57.9652 133.773 59.1326 127.691 63.9184 122.5C69.2625 116.72 76.3521 113.212 86.9096 111.124H87.0724C91.2111 110.195 95.4469 109.77 99.6877 109.856H99.8505C104.095 109.769 108.335 110.195 112.477 111.124H112.629C123.186 113.212 130.276 116.72 135.62 122.499C140.448 127.691 141.614 133.793 138.794 138.853V138.853Z" fill="#162843"/>
<path d="M116.32 135.294C120.012 137.099 123.42 135.294 124.109 131.238C124.829 126.859 118.936 116.457 117.578 124.325C116.219 132.192 110.184 121.191 110.144 126.118C110.248 128.063 110.878 129.943 111.965 131.559C113.053 133.174 114.558 134.465 116.32 135.294V135.294Z" fill="#162843"/>
<path d="M818.057 91.5308C820.29 92.5479 822.482 93.6511 824.63 94.8381C826.854 96.0773 828.902 97.6098 830.718 99.3945C834.854 103.457 837.212 108.991 837.277 114.787C837.576 119.238 836.762 123.695 834.91 127.754C833.147 131.467 830.544 134.718 827.307 137.251C823.792 139.964 819.802 141.998 815.542 143.249C810.768 144.698 805.824 145.513 800.837 145.673C798.351 145.746 795.863 145.624 793.397 145.307C790.855 145.004 788.335 144.542 785.852 143.925C783.402 143.308 780.987 142.562 778.617 141.69C776.371 140.879 774.163 139.966 772 138.956L779.852 116.904C781.103 117.413 782.343 117.948 783.573 118.506C785.087 119.195 786.639 119.799 788.219 120.314C789.924 120.876 791.651 121.367 793.397 121.785C795.121 122.186 796.891 122.358 798.661 122.299C800.875 122.229 803.06 121.772 805.116 120.947C805.903 120.682 806.581 120.163 807.042 119.471C807.503 118.78 807.72 117.955 807.661 117.126C807.627 116.558 807.441 116.011 807.122 115.54C806.804 115.069 806.365 114.693 805.851 114.449C804.531 113.738 803.166 113.114 801.764 112.582C800.734 112.303 799.366 111.935 797.675 111.45C795.827 110.908 794.014 110.25 792.248 109.48C790.227 108.628 788.262 107.646 786.367 106.541C784.402 105.362 782.598 103.933 781 102.291C779.354 100.612 777.993 98.6762 776.971 96.5592C775.859 94.2203 775.276 91.6654 775.263 89.076C775.043 84.6501 775.896 80.2365 777.749 76.2111C779.492 72.5222 781.998 69.2453 785.102 66.5973C788.293 63.8954 791.972 61.8299 795.94 60.5124C800.215 59.0784 804.671 58.2568 809.175 58.0721C813.491 57.8691 817.815 58.095 822.086 58.7464C826.2 59.3629 830.227 60.4584 834.086 62.0104L827.983 85.8698C825.503 84.8037 822.987 83.8232 820.44 82.9301C817.854 82.0658 815.189 81.4602 812.484 81.1223C811.284 80.9618 810.075 80.8927 808.865 80.9168C807.422 80.9137 805.983 81.066 804.573 81.3712C803.27 81.6264 802.028 82.1254 800.911 82.8418C800.411 83.1545 799.997 83.5872 799.707 84.1006C799.416 84.614 799.259 85.1918 799.249 85.7815C799.249 86.0474 799.322 86.3082 799.459 86.5361C799.597 86.7639 799.793 86.9504 800.028 87.0755C800.611 87.4095 801.24 87.6535 801.896 87.7964C802.628 87.973 803.37 88.1095 804.117 88.2074L805.968 88.4723C807.969 88.8833 810.1 89.3698 812.381 89.9429C814.318 90.2929 816.219 90.826 818.057 91.5308V91.5308Z" fill="#162843"/>
<path d="M866.441 104.519L872.324 77.7632L888.499 76.5285L894.602 104.829H894.808L900.896 75.6022L923.425 77.4549L907.617 137.067L886.22 138.729L880.44 109.901H880.235L874.352 137.067L853.177 138.832L837 77.4533L860.147 75.6022L866.25 104.519H866.441V104.519ZM957.233 131.291H957.027C955.298 133.807 952.825 135.719 949.954 136.759C946.979 137.782 943.849 138.279 940.704 138.228C938.016 138.242 935.351 137.744 932.85 136.759C930.412 135.782 928.196 134.321 926.336 132.466C924.447 130.531 922.949 128.25 921.925 125.747C920.786 122.948 920.226 119.949 920.277 116.928C920.247 114.236 920.809 111.571 921.925 109.12C923.004 106.778 924.533 104.67 926.425 102.917C928.377 101.126 930.653 99.7244 933.13 98.7856C935.823 97.7776 938.681 97.2794 941.556 97.3166C944.294 97.2402 947.02 97.7152 949.57 98.7134C951.537 99.5335 953.395 100.595 955.1 101.873V98.7712C955.1 95.5955 954.066 93.4939 951.997 92.4648C949.464 91.3411 946.707 90.8127 943.938 90.9203C941.088 90.8998 938.246 91.2107 935.468 91.8466C932.85 92.4648 930.194 93.1905 927.498 94.0221L931.541 77.5866C934.908 76.616 938.352 75.9423 941.836 75.5733C945.475 75.1879 949.132 74.9953 952.792 75.0001C956.136 74.9956 959.469 75.3956 962.717 76.1914C965.788 76.9107 968.687 78.2294 971.246 80.0719C973.724 81.8866 975.739 84.2588 977.129 86.9964C978.663 90.2485 979.37 93.8286 979.188 97.4194L978.056 136.48L957.277 138.23L957.233 131.291V131.291ZM944.115 112.179C941.994 112.434 939.986 113.28 938.322 114.619C937.644 115.093 937.106 115.74 936.762 116.492C936.418 117.244 936.281 118.074 936.366 118.896C936.508 119.694 936.853 120.442 937.368 121.068C937.883 121.694 938.551 122.177 939.306 122.47C941.39 123.298 943.672 123.492 945.865 123.027C948.087 122.827 950.188 121.926 951.865 120.455C952.465 119.938 952.921 119.276 953.192 118.532C953.462 117.789 953.537 116.988 953.409 116.207C953.252 115.486 952.933 114.809 952.477 114.229C952.022 113.648 951.44 113.178 950.776 112.855C948.702 111.863 946.347 111.624 944.115 112.179ZM1008.19 76.5285V83.5558C1010.11 81.3578 1012.45 79.5508 1015.05 78.2336C1017.74 77.0367 1020.65 76.4541 1023.58 76.5285C1027.53 76.4816 1031.42 77.4215 1034.91 79.2627C1038.26 81.0407 1041.21 83.482 1043.58 86.4377C1045.99 89.4564 1047.86 92.8678 1049.11 96.5219C1050.41 100.186 1051.08 104.044 1051.08 107.931C1051.09 112 1050.39 116.04 1049.01 119.868C1047.68 123.585 1045.69 127.032 1043.13 130.04C1040.62 132.998 1037.54 135.423 1034.08 137.17C1030.5 138.984 1026.53 139.907 1022.51 139.861C1020.19 139.837 1017.88 139.525 1015.64 138.934C1013.16 138.292 1010.9 137.009 1009.07 135.215L1009.7 155.797L987.892 157.663L986.746 78.4102L1008.19 76.5285V76.5285ZM1022.32 116.589C1025.11 115.433 1027.35 113.248 1028.57 110.488C1029.09 109.335 1029.36 108.082 1029.35 106.815C1029.35 105.548 1029.06 104.297 1028.52 103.151C1027.98 102.005 1027.2 100.99 1026.23 100.178C1025.25 99.3654 1024.12 98.7747 1022.89 98.4469C1019.99 97.6817 1016.91 98.0336 1014.26 99.4327C1011.43 100.608 1009.14 102.8 1007.85 105.577C1007.31 106.73 1007.04 107.991 1007.05 109.265C1007.07 110.538 1007.38 111.791 1007.95 112.929C1008.48 114.068 1009.26 115.073 1010.23 115.868C1011.21 116.671 1012.36 117.252 1013.58 117.573C1014.93 117.918 1016.33 118.023 1017.72 117.883C1019.31 117.726 1020.87 117.288 1022.32 116.589V116.589Z" fill="#162843"/>
<path d="M611.843 72.6427L593.755 94.8565C590.039 90.9359 586.785 88.4232 583.991 87.3154C581.732 86.2601 579.187 85.9856 576.756 86.5352C574.697 87.1431 572.897 88.4149 571.637 90.1524C570.33 91.88 569.22 93.7487 568.329 95.7235C567.357 98.1019 566.599 100.562 566.065 103.075C566.065 103.207 566.212 104.103 566.521 105.764C566.951 107.71 567.685 109.575 568.697 111.292C569.79 113.252 571.495 114.801 573.55 115.702C575.648 116.682 578.511 116.545 582.137 115.291C585.765 114.036 590.225 110.973 595.52 106.103L615.666 127.596C614.307 129.966 612.481 132.036 610.298 133.681C607.488 135.914 604.435 137.823 601.196 139.371C597.484 141.165 593.609 142.598 589.623 143.649C585.422 144.791 581.106 145.452 576.756 145.619C572.407 145.788 568.056 145.317 563.844 144.223C559.569 143.111 555.566 141.14 552.08 138.43C547.329 134.918 543.412 130.401 540.61 125.201C538.197 120.57 536.699 115.519 536.198 110.322C535.715 105.195 536.118 100.023 537.39 95.0331C538.613 90.0528 540.414 85.2325 542.757 80.6703C544.973 76.3234 547.714 72.2648 550.919 68.5856C553.708 65.3115 556.923 62.4245 560.477 60.001C562.936 58.6157 565.533 57.4921 568.226 56.6487C571.013 55.8604 573.869 55.3437 576.756 55.1058C580.331 54.8141 583.93 55.1267 587.402 56.0306C591.645 57.134 595.689 58.8952 599.387 61.2501C604.138 64.3364 608.347 68.1857 611.843 72.6427V72.6427Z" fill="#162843"/>
<path d="M681.5 102.168C682.205 106.577 681.974 111.084 680.824 115.398C679.766 119.352 677.904 123.046 675.354 126.248C672.772 129.439 669.571 132.075 665.942 133.996C662.036 136.07 657.786 137.42 653.398 137.979C648.995 138.602 644.517 138.458 640.163 137.554C636.122 136.738 632.289 135.107 628.899 132.761C625.552 130.407 622.736 127.377 620.634 123.867C618.35 120.028 616.907 115.749 616.399 111.312C615.697 106.904 615.923 102.398 617.061 98.0823C618.139 94.119 620.004 90.4136 622.547 87.1874C625.116 83.9737 628.313 81.3175 631.944 79.3814C635.853 77.3051 640.108 75.9601 644.501 75.4126C648.903 74.7791 653.382 74.9181 657.736 75.8236C661.761 76.6561 665.578 78.2909 668.957 80.6305C672.315 82.9897 675.132 86.0365 677.221 89.5684C679.479 93.4385 680.935 97.7237 681.5 102.168V102.168ZM638.09 110.989C638.574 112.226 639.326 113.341 640.293 114.254C641.259 115.166 642.415 115.854 643.679 116.266C646.575 117.061 649.663 116.763 652.354 115.428C655.143 114.394 657.469 112.397 658.913 109.798C659.51 108.627 659.835 107.337 659.864 106.023C659.892 104.71 659.622 103.407 659.075 102.212C658.573 100.994 657.815 99.8988 656.854 98.9987C655.892 98.0986 654.749 97.415 653.501 96.9938C650.643 96.1574 647.574 96.4356 644.914 97.7725C642.078 98.7933 639.711 100.81 638.252 103.446C637.662 104.603 637.341 105.878 637.312 107.177C637.284 108.475 637.55 109.763 638.09 110.944V110.989V110.989ZM707.647 103.917L713.528 77.161L729.705 75.9264L735.808 104.227H736.013L742.102 75L764.631 76.8528L748.718 136.465L727.322 138.127L721.543 109.298H721.338L715.455 136.465L694.264 138.23L678.089 76.8511L701.236 75L707.338 103.917H707.647V103.917Z" fill="#162843"/>
<path d="M253.5 138.359C245.719 138.359 238.984 136.688 233.297 133.344C227.641 130 223.328 125.406 220.359 119.562C217.422 113.719 215.953 107.047 215.953 99.5469C215.953 91.7656 217.422 84.9844 220.359 79.2031C223.297 73.3906 227.578 68.9062 233.203 65.75C238.859 62.5625 245.625 60.9688 253.5 60.9688C261.344 60.9688 268.094 62.5469 273.75 65.7031C279.375 68.8906 283.656 73.3906 286.594 79.2031C289.562 85.0156 291.047 91.7969 291.047 99.5469C291.047 107.047 289.578 113.719 286.641 119.562C283.703 125.406 279.391 130 273.703 133.344C268.047 136.688 261.312 138.359 253.5 138.359ZM253.5 121.719C256.875 121.719 259.453 119.672 261.234 115.578C263.047 111.484 263.953 106.016 263.953 99.1719C263.953 92.5156 263.078 87.25 261.328 83.375C259.609 79.5 257 77.5625 253.5 77.5625C249.969 77.5625 247.344 79.5 245.625 83.375C243.906 87.25 243.047 92.5156 243.047 99.1719C243.047 106.016 243.938 111.484 245.719 115.578C247.5 119.672 250.094 121.719 253.5 121.719ZM394.828 105.125V123.453H401.344V137H372.375V105.031C372.375 103.688 371.938 102.5 371.062 101.469C370.188 100.438 369.141 99.9219 367.922 99.9219C365.641 99.9219 364.203 101.062 363.609 103.344C362.984 105.688 362.672 108.969 362.672 113.188V137H340.172V105.031C340.172 103.688 339.734 102.5 338.859 101.469C338.016 100.438 336.984 99.9219 335.766 99.9219C333.484 99.9219 332.047 101.062 331.453 103.344C330.828 105.688 330.516 108.969 330.516 113.188V123.453H330.609V137H301.312V123.453H308.109V101.281H301.312V88.625L330.516 85.8125V92.8438C332.672 90.2812 335.125 88.4688 337.875 87.4062C340.625 86.3438 343.734 85.8125 347.203 85.8125C354.297 85.8125 358.938 88.8281 361.125 94.8594C363.438 91.5781 366.094 89.25 369.094 87.875C372.094 86.5 375.516 85.8125 379.359 85.8125C389.672 85.8125 394.828 92.25 394.828 105.125ZM468.797 105.125V123.453H475.312V137H446.297V105.031C446.297 103.688 445.859 102.5 444.984 101.469C444.141 100.438 443.109 99.9219 441.891 99.9219C439.609 99.9219 438.172 101.062 437.578 103.344C436.953 105.688 436.641 108.969 436.641 113.188V123.453H436.734V137H407.438V123.453H414.234V101.281H407.438V88.625L436.641 85.8125V92.8438C438.797 90.2812 441.25 88.4688 444 87.4062C446.75 86.3438 449.859 85.8125 453.328 85.8125C463.641 85.8125 468.797 92.25 468.797 105.125ZM497.953 81.875C494.047 81.875 490.828 80.9531 488.297 79.1094C485.766 77.2656 484.5 74.6094 484.5 71.1406C484.5 67.6719 485.766 65.0469 488.297 63.2656C490.828 61.4844 494.078 60.5938 498.047 60.5938C502.016 60.5938 505.234 61.4688 507.703 63.2188C510.203 64.9688 511.453 67.6094 511.453 71.1406C511.453 74.6094 510.172 77.2656 507.609 79.1094C505.078 80.9531 501.859 81.875 497.953 81.875ZM515.203 122.891V137H480.656V122.891H486.703V101.281H480.656V89.75L509.156 86.7969V122.891H515.203Z" fill="#162843"/>
</svg>
